<svg xmlns="http://www.w3.org/2000/svg" width="555.846" height="899.703" viewBox="0 0 555.846 899.703">
  <title>UF</title>
  <g>
    <path d="M221.466,568.6v24.788H266.2v-298l-44.738.5V492.619c-1.016,49.386-44.339,87.167-88.219,87.3-48.856.146-84.962-34.267-86.365-87.3V295.391H0V492.619c2.69,54.722,31.165,100.5,133.25,100.77C183.026,593.52,214.115,575.855,221.466,568.6Z" fill="#fff"/>
    <path d="M552.286,61.261C538.307,25.543,503.306-.085,426.819,0c-118.4.133-132.954,88.617-132.954,100.769V706.346c-.462,4.668-.319,18.771-9.981,26.1-8,6.071-19.222,11.345-32.041,10.68-6.485-.337-22.987-3.483-35.745-15.6-26.716-25.373-25.48-46.394-60.053-68.286-6.639-4.2-23.681-13.683-46.307-13.237-6.126.12-21.764.622-37.6,10.423-20.249,12.536-27.622,32.117-32.871,46.056-2.976,7.9-8.554,23.224-6.688,43.268a88.365,88.365,0,0,0,4.357,20.309c3.94-9.549,11.581-23.443,26.184-34,7.292-5.272,16.812-12.156,28.037-10.646,8.388,1.127,16.241,6.74,26.418,22.048,19.933,29.983,13.929,44.73,30.607,80.605A177.145,177.145,0,0,0,180.081,871.1c8.813,9.288,18.891,19.041,35.423,24.643a74.261,74.261,0,0,0,37.676,2.681c18.482-3.76,44.55-28.75,57.547-52.874,10.558-19.6,16.687-34.467,21.705-56.361,4.557-19.88,5.535-49.033,5.535-67.263l.637-300.06,63.566-78.315a28.543,28.543,0,0,0,11.406,14.476,28.785,28.785,0,1,0-7.617-41.137,8.76,8.76,0,0,0-2.561,2.465L338.6,398.907V100.77c1.013-49.385,44.338-87.167,88.218-87.3,36.8-.109,66.369,19.391,79.319,51.687,3.928,9.8,3.319,15.263,6.838,22.691,4.693,9.906,11.825,12.6,21.139,12.133,10.811-.538,18.534-5.957,20.911-16.483C556.774,75.778,555.661,69.885,552.286,61.261Z" fill="#fff"/>
  </g>
</svg>
